<?xml version="1.0" encoding="UTF-8"?><svg id="a" xmlns="http://www.w3.org/2000/svg" viewBox="0 0 924.35 1562.3"><defs><style>.b{letter-spacing:0em;}.c{letter-spacing:0em;}.d{fill:none;stroke:#000;stroke-miterlimit:10;stroke-width:6px;}.e{letter-spacing:.03em;}.f{letter-spacing:0em;}.g{letter-spacing:0em;}.h{font-family:MyriadPro-Regular, Myriad Pro;font-size:18.97px;}.i{fill:#fff;}.j{fill:#ed1c24;}.k{letter-spacing:0em;}.l{letter-spacing:0em;}.m{letter-spacing:0em;}.n{letter-spacing:.02em;}.o{letter-spacing:.02em;}.p{letter-spacing:0em;}.q{letter-spacing:0em;}.r{letter-spacing:0em;}.s{letter-spacing:0em;}.t{letter-spacing:.01em;}</style></defs><rect class="i" y=".3" width="927.13" height="1562"/><text class="h" transform="translate(30.75 30.09)"><tspan x="0" y="0">L</tspan><tspan class="q" x="8.96" y="0">a</tspan><tspan class="s" x="17.95" y="0">y</tspan><tspan x="26.7" y="0">ou</tspan><tspan class="g" x="47.57" y="0">t</tspan><tspan class="m" x="53.74" y="0">dia</tspan><tspan class="g" x="78.02" y="0">g</tspan><tspan class="f" x="88.52" y="0">r</tspan><tspan class="c" x="94.63" y="0">am </tspan></text><text class="h" transform="translate(30.49 59.88)"><tspan x="0" y="0">ind</tspan><tspan class="b" x="25.67" y="0">e</tspan><tspan x="35.12" y="0">x.</tspan><tspan class="r" x="47.83" y="0">h</tspan><tspan x="58.29" y="0">tml</tspan></text><path class="j" d="M833.1,144.14V507.42H125.64V144.14H833.1m6-6H119.64v375.28H839.1V138.14h0Z"/><path class="j" d="M855.74,1037.01v493.47H120.9v-493.47H855.74m6-6H114.9v505.47H861.74v-505.47h0Z"/><text class="h" transform="translate(125.89 119.26)"><tspan x="0" y="0">.pla</tspan><tspan class="o" x="28.35" y="0">k</tspan><tspan class="p" x="37.59" y="0">a</tspan><tspan x="46.66" y="0">t</tspan></text><text class="h" transform="translate(114.83 562.71)"><tspan x="0" y="0">se</tspan><tspan class="t" x="17.02" y="0">c</tspan><tspan x="25.77" y="0">tion</tspan></text><text class="h" transform="translate(114.83 1014.42)"><tspan x="0" y="0">se</tspan><tspan class="t" x="17.02" y="0">c</tspan><tspan x="25.77" y="0">tion</tspan></text><path class="j" d="M791.04,1097.62v393.85H167.88v-393.85H791.04m6-6H161.88v405.85H797.04v-405.85h0Z"/><text class="h" transform="translate(161.74 1075.56)"><tspan x="0" y="0">.</tspan><tspan class="l" x="3.93" y="0">c</tspan><tspan x="12.31" y="0">o</tspan><tspan class="r" x="22.73" y="0">n</tspan><tspan class="g" x="33.19" y="0">t</tspan><tspan x="39.35" y="0">e</tspan><tspan class="r" x="48.86" y="0">n</tspan><tspan x="59.31" y="0">t2</tspan></text><rect class="d" x="210.42" y="1158.03" width="536.58" height="36.9"/><text class="h" transform="translate(193.11 1146.47)"><tspan x="0" y="0">.bes</tspan><tspan class="n" x="31.74" y="0">k</tspan><tspan class="k" x="40.97" y="0">r</tspan><tspan class="m" x="47.25" y="0">i</tspan><tspan class="s" x="51.69" y="0">v</tspan><tspan x="60.62" y="0">else</tspan></text><rect class="d" x="492.29" y="1284" width="255.11" height="183.42"/><rect class="d" x="210.83" y="1284" width="260.9" height="183.42"/><text class="h" transform="translate(193 1263.66)"><tspan x="0" y="0">.videoer</tspan></text><path class="j" d="M839.44,587.41v375.93H120.91v-375.93H839.44m6-6H114.91v387.93H845.44v-387.93h0Z"/><text class="h" transform="translate(161.74 641.24)"><tspan x="0" y="0">.</tspan><tspan class="l" x="3.93" y="0">c</tspan><tspan x="12.31" y="0">o</tspan><tspan class="r" x="22.73" y="0">n</tspan><tspan class="g" x="33.19" y="0">t</tspan><tspan x="39.35" y="0">e</tspan><tspan class="r" x="48.86" y="0">n</tspan><tspan x="59.31" y="0">t</tspan></text><text class="h" transform="translate(515.4 641.24)"><tspan x="0" y="0">.galle</tspan><tspan class="e" x="42.14" y="0">r</tspan><tspan x="48.82" y="0">y</tspan></text><rect class="d" x="161.81" y="656.78" width="295.69" height="269.34"/><rect class="d" x="507.05" y="656.25" width="296.74" height="270.39"/></svg>